<svg id="Layer_1" data-name="Layer 1" xmlns="http://www.w3.org/2000/svg" viewBox="0 0 668.87 741.58"><defs><style>.cls-1{fill:#262f6c;}.cls-2{fill:#fcee21;stroke:#231f20;stroke-miterlimit:10;}.cls-3{fill:#fbe300;}.cls-4{fill:#ee2824;}</style></defs><path class="cls-1" d="M620.84,771.79C433.31,705,357.41,561.56,343,374.86c-14.24,124.32,36.48,226.79,112.76,320.58-103.34,33.13-273.4-21.27-350.44-163.27C24.43,383.06,68.78,189.32,208.42,102.79c-6,5.5-12.2,10.9-18.12,16.53-53,50.35-73.9,111.53-59.15,183.29,8.18,39.83,27.85,73,71.44,80.95,42,7.66,71.36-16,95.37-47.08,8.74-11.29,15.47-24.13,23.06-36.15C489.76,366.89,631,589,620.84,771.79Z" transform="translate(-65.07 -30.21)"/><ellipse class="cls-1" cx="200.47" cy="126.28" rx="21.77" ry="20"/><circle class="cls-2" cx="196.4" cy="127.61" r="8.33"/><path class="cls-3" d="M733.93,361.41A330.6,330.6,0,0,1,611.17,618.82a375.92,375.92,0,0,0,13.56-100.38c0-173.58-117.71-319.67-277.67-362.78-7.49-37.11-27.62-65.85-57.54-76-19.59-6.62-40.69-4.35-60.91,5q-1-1.93-2.07-3.81a329.66,329.66,0,0,1,176.19-50.7C585.65,30.21,733.93,178.49,733.93,361.41Z" transform="translate(-65.07 -30.21)"/><path class="cls-4" d="M623.4,525.11a375.92,375.92,0,0,1-13.56,100.38c-.64.52-1.28,1-1.93,1.55-47-144.66-150-264-283.47-332.58a221.51,221.51,0,0,0,13.12-30.93c12-35.59,14.25-71.14,8.17-101.2C505.69,205.44,623.4,351.53,623.4,525.11Z" transform="translate(-65.07 -30.21)"/></svg>