<?xml version="1.0" encoding="utf-8"?>
<!-- Generator: Adobe Illustrator 24.0.2, SVG Export Plug-In . SVG Version: 6.00 Build 0)  -->
<svg version="1.1" id="Layer_4" xmlns="http://www.w3.org/2000/svg" xmlns:xlink="http://www.w3.org/1999/xlink" x="0px" y="0px"
	 viewBox="0 0 845.8 551.4" style="enable-background:new 0 0 845.8 551.4;" xml:space="preserve">
<style type="text/css">
	.st0{fill:#FFFFFF;stroke:#B8E6FF;stroke-linejoin:round;}
	.st1{fill:none;stroke:#B8E6FF;stroke-linejoin:round;}
	.st2{fill:none;stroke:#86BFEF;stroke-miterlimit:10;}
	.st3{fill:#86BFEF;}
	.st4{fill:#14B0BF;}
	.st5{fill:#284962;}
	.st6{fill:#FFFFFF;}
	.st7{fill:#52A5FF;stroke:#418BE5;stroke-linejoin:round;}
	.st8{fill:#6EBEFF;}
	.st9{fill:#85CEFF;}
	.st10{fill:#FFFFFF;stroke:#418BE5;stroke-linejoin:round;}
	.st11{clip-path:url(#SVGID_2_);}
	.st12{fill:none;stroke:#DEF2FF;stroke-width:5;stroke-linejoin:round;}
	.st13{fill:#FFFFFF;stroke:#CCEDFF;stroke-miterlimit:10;}
	.st14{fill:none;stroke:#CCEDFF;stroke-miterlimit:10;}
	.st15{fill:none;stroke:#CCEDFF;stroke-width:3;stroke-linecap:round;stroke-miterlimit:10;}
	.st16{fill:#CCEDFF;}
	.st17{fill:#E6F7FF;}
	.st18{fill:none;stroke:#DEF2FF;stroke-width:3;stroke-linejoin:round;}
	.st19{fill:#E6D69E;}
	.st20{fill:#ECE1B2;}
	.st21{fill:#52A5FF;}
	.st22{opacity:0.4;}
	.st23{fill:#C07D1B;}
	.st24{fill:#38322B;}
	.st25{fill:#D6A8AF;}
	.st26{fill:#CE939A;}
	.st27{fill:#595AA0;}
	.st28{fill:#FF61BB;}
	.st29{fill:#CCD0EA;}
	.st30{fill:#DEE3F4;}
	.st31{fill:#A94700;}
	.st32{fill:#EA9242;}
	.st33{fill:#EB4747;}
	.st34{fill:#FAA146;}
	.st35{fill:#B33636;}
	.st36{fill:#3F3F3F;}
	.st37{fill:#FFF0CC;}
	.st38{fill:#FFFCE3;}
	.st39{fill:#314695;}
	.st40{fill:#102575;}
	.st41{fill:#FFC1C1;}
	.st42{fill:#FF9E9E;}
	.st43{fill:#E8E8E8;}
	.st44{fill:#3E6ACC;}
	.st45{fill:#5779D4;}
	.st46{fill:#D3D1D2;}
	.st47{fill:#B41700;}
	.st48{fill:#241F3C;}
	.st49{fill:#592F34;}
	.st50{fill:#FF9566;}
	.st51{fill:#6B3B3E;}
	.st52{fill:#DBCCAD;}
	.st53{fill:#D1BB93;}
	.st54{fill:#EFE3CA;}
	.st55{fill:#F9F0E1;}
	.st56{fill:#FFB882;}
	.st57{fill:#665249;}
	.st58{fill:#333333;}
</style>
<title>online study concept</title>
<path class="st0" d="M202.2,241.3c-21.4-28-63.6-88.6-43.5-221.2c68.5,70.6,76,116.6,78.9,204.9"/>
<path class="st1" d="M158.7,20c0,0,11.9,107.1,60.6,209.6"/>
<path class="st1" d="M158.7,20c0,0-7.4,114.3,53.1,218.1"/>
<path class="st1" d="M224.1,225.6c-2.9-25.2-41.2-149.2-65.3-205.5"/>
<path class="st1" d="M231.1,219.8c-10-63.8-18-126.9-72.4-199.7"/>
<path class="st0" d="M186.6,263.4c-24.3-15.7-73.6-51-90.4-164.8c72.9,34.7,90.5,69.5,114.9,140.1"/>
<path class="st1" d="M96.3,98.6c0,0,36.3,82.8,101.3,149.8"/>
<path class="st1" d="M96.3,98.6c0,0,22.5,94.9,97.4,159.2"/>
<path class="st1" d="M200.4,243.6c-8.6-19.4-70.5-107.3-104.1-145"/>
<path class="st1" d="M204.6,236.6c-24-48.4-46.2-96.8-108.4-138"/>
<path class="st0" d="M168.6,350.8c-32.5-2.2-99.8-10.4-168.1-119.9c91.9-6.3,125.8,20,182.8,79.6"/>
<path class="st1" d="M0.5,230.9c0,0,74.9,65.5,172.9,97.7"/>
<path class="st1" d="M0.5,230.9c0,0,65.9,86.3,172.9,109.9"/>
<path class="st1" d="M174.2,322c-17.7-15.3-121.7-71.2-173.6-91.1"/>
<path class="st1" d="M175.5,312.1c-46.7-36.6-91.5-74.4-175-81.3"/>
<path class="st2" d="M161.4,306.4C146,223.7,84.5,180.6,84.5,180.6"/>
<path class="st3" d="M86.3,182c0,0-12.1-25.6-21.3-17.9S86.3,182,86.3,182z"/>
<path class="st3" d="M97,190.9c0,0,5.8-30.1-6.2-31.2S97,190.9,97,190.9z"/>
<path class="st3" d="M107.1,200.8c0,0,15.6-25.1,5-31.5S107.1,200.8,107.1,200.8z"/>
<path class="st3" d="M120.4,215.8c0,0,14.7-23.6,4.7-29.6S120.4,215.8,120.4,215.8z"/>
<path class="st3" d="M121.2,215.5c0,0-23.7-10.3-26.2,2.3S121.2,215.5,121.2,215.5z"/>
<path class="st3" d="M131,230.1c0,0,14.7-23.6,4.7-29.6S131,230.1,131,230.1z"/>
<path class="st3" d="M131.8,229.9c0,0-23.7-10.3-26.2,2.3S131.8,229.9,131.8,229.9z"/>
<path class="st3" d="M139.8,247c0,0,17.2-21.3,8-28.7S139.8,247,139.8,247z"/>
<path class="st3" d="M140.6,246.9c0,0-22.3-13.8-26.3-1.7S140.6,246.9,140.6,246.9z"/>
<path class="st3" d="M148.2,262.1c0,0,17.2-21.3,8-28.7S148.2,262.1,148.2,262.1z"/>
<path class="st3" d="M149,262c0,0-22.3-13.8-26.3-1.7S149,262,149,262z"/>
<path class="st3" d="M155,282.6c0,0,17.2-21.3,8-28.7S155,282.6,155,282.6z"/>
<path class="st3" d="M155.8,282.5c0,0-22.3-13.8-26.3-1.7S155.8,282.5,155.8,282.5z"/>
<path class="st3" d="M106.7,200.7c0,0-26.9-1.7-25.9,12S106.7,200.7,106.7,200.7z"/>
<path class="st3" d="M96.5,189.9c0,0-25.4-10.3-27.8,3.1S96.5,189.9,96.5,189.9z"/>
<path class="st2" d="M124.5,369.3C82,318.9,22.2,319.5,22.2,319.5"/>
<path class="st3" d="M24.1,319.6c0,0-18.4-11.9-21.8-1.9S24.1,319.6,24.1,319.6z"/>
<path class="st3" d="M35,320.5c0,0-7.5-24.1-16.3-18.8S35,320.5,35,320.5z"/>
<path class="st3" d="M45.9,322.3c0,0,1.3-25.5-8.6-24.6S45.9,322.3,45.9,322.3z"/>
<path class="st3" d="M60.9,326.2c0,0,1.3-24-8.1-23.2S60.9,326.2,60.9,326.2z"/>
<path class="st3" d="M61.4,325.6c0,0-20.6,4.6-17.6,14.8S61.4,325.6,61.4,325.6z"/>
<path class="st3" d="M73.9,330.9c0,0,1.3-24-8.1-23.2S73.9,330.9,73.9,330.9z"/>
<path class="st3" d="M74.4,330.4c0,0-20.6,4.6-17.6,14.8S74.4,330.4,74.4,330.4z"/>
<path class="st3" d="M86.6,338.4c0,0,4-23.6-5.4-24.2S86.6,338.4,86.6,338.4z"/>
<path class="st3" d="M87.1,337.9c0,0-20.9,1.5-19.1,12S87.1,337.9,87.1,337.9z"/>
<path class="st3" d="M98.3,344.8c0,0,4-23.6-5.4-24.2S98.3,344.8,98.3,344.8z"/>
<path class="st3" d="M98.8,344.3c0,0-20.9,1.5-19.1,12C81.5,366.8,98.8,344.3,98.8,344.3z"/>
<path class="st3" d="M110.9,355.8c0,0,4-23.6-5.4-24.2S110.9,355.8,110.9,355.8z"/>
<path class="st3" d="M111.4,355.3c0,0-21,1.5-19.1,12S111.4,355.3,111.4,355.3z"/>
<path class="st3" d="M45.6,322.5c0,0-19.5,12.3-13.6,21.5S45.6,322.5,45.6,322.5z"/>
<path class="st3" d="M34.2,320c0,0-21.8,5.5-18.4,16.2S34.2,320,34.2,320z"/>
<path class="st0" d="M641.9,207c25.9-22.5,77.9-72.1,81.7-206.5c-79.5,53.2-95,96.5-113.5,182.4"/>
<path class="st1" d="M723.6,0.5c0,0-30.6,102.1-96.5,191.1"/>
<path class="st1" d="M723.6,0.5c0,0-13,113.6-90.6,201.3"/>
<path class="st1" d="M623.3,186.6c7.3-24,66.7-136.5,100.3-186.1"/>
<path class="st1" d="M617.4,179.3c21.1-60.1,40-120,106.2-178.8"/>
<path class="st0" d="M673.3,280.6c31.5-9.2,96.2-31.9,145.1-154.3c-91.3,13.9-120.2,47-166.3,118"/>
<path class="st1" d="M818.5,126.4c0,0-62.7,80.6-153.5,133.5"/>
<path class="st1" d="M818.5,126.4c0,0-50.4,99-151.5,145.4"/>
<path class="st1" d="M663.1,253.6c14.9-18.9,107.6-96.4,155.4-127.2"/>
<path class="st1" d="M660.1,244.2c39.8-46.1,77.5-93,158.4-117.8"/>
<path class="st0" d="M660.2,336.9c32.2,5,99.6,11.7,185-80.8c-89.2-26.3-126.8-8-192.7,38"/>
<path class="st1" d="M845.3,256.1c0,0-84.5,47.8-186,58"/>
<path class="st1" d="M845.3,256.1c0,0-79.1,70.2-188.1,69.9"/>
<path class="st1" d="M659.6,307.4c20-11.1,131.3-43.2,185.7-51.3"/>
<path class="st1" d="M659.9,297.4c52-25.7,102.3-53,185.4-41.3"/>
<path class="st0" d="M633.2,372.1c21.2,16.8,66.3,49,146.1,15.3c-55.8-55.6-85.9-57.4-141.9-50"/>
<path class="st1" d="M779.3,387.4c0,0-69.2,1.1-141.7-32.5"/>
<path class="st1" d="M779.3,387.4c0,0-70.5,19.9-145.8-24.6"/>
<path class="st1" d="M639.4,350.1c16.3-0.1,100.5,21.3,140,37.3"/>
<path class="st1" d="M641.8,342.8c41.7,2,82.6,2.3,137.5,44.6"/>
<path class="st2" d="M671.7,225.5c15.4-82.7,76.9-125.8,76.9-125.8"/>
<path class="st3" d="M746.7,101.1c0,0,12.1-25.6,21.3-17.9S746.7,101.1,746.7,101.1z"/>
<path class="st3" d="M736.1,110.1c0,0-5.8-30.1,6.2-31.2S736.1,110.1,736.1,110.1z"/>
<path class="st3" d="M725.9,119.9c0,0-15.6-25.1-5-31.5S725.9,119.9,725.9,119.9z"/>
<path class="st3" d="M712.7,134.9c0,0-14.7-23.6-4.7-29.6S712.7,134.9,712.7,134.9z"/>
<path class="st3" d="M711.9,134.6c0,0,23.7-10.3,26.2,2.3S711.9,134.6,711.9,134.6z"/>
<path class="st3" d="M702.1,149.2c0,0-14.7-23.6-4.7-29.6S702.1,149.2,702.1,149.2z"/>
<path class="st3" d="M701.3,149c0,0,23.7-10.3,26.2,2.3S701.3,149,701.3,149z"/>
<path class="st3" d="M693.3,166.1c0,0-17.2-21.3-8-28.7S693.3,166.1,693.3,166.1z"/>
<path class="st3" d="M692.5,166c0,0,22.3-13.8,26.3-1.7S692.5,166,692.5,166z"/>
<path class="st3" d="M684.8,181.3c0,0-17.2-21.3-8-28.7S684.8,181.3,684.8,181.3z"/>
<path class="st3" d="M684,181.1c0,0,22.3-13.8,26.3-1.7S684,181.1,684,181.1z"/>
<path class="st3" d="M678,201.8c0,0-17.2-21.3-8-28.7S678,201.8,678,201.8z"/>
<path class="st3" d="M677.2,201.6c0,0,22.3-13.8,26.3-1.7S677.2,201.6,677.2,201.6z"/>
<path class="st3" d="M726.3,119.9c0,0,26.9-1.7,25.9,12S726.3,119.9,726.3,119.9z"/>
<path class="st3" d="M736.5,109c0,0,25.4-10.3,27.8,3.1S736.5,109,736.5,109z"/>
<path class="st2" d="M643.2,380.8c45.3-43.5,102.6-36,102.6-36"/>
<path class="st3" d="M744.1,344.6c0,0,18.7-9.3,21.1,0.7S744.1,344.6,744.1,344.6z"/>
<path class="st3" d="M733.5,344.3c0,0,9.3-22.3,17.3-16.2S733.5,344.3,733.5,344.3z"/>
<path class="st3" d="M722.9,344.7c0,0,1-24.7,10.4-22.7S722.9,344.7,722.9,344.7z"/>
<path class="st3" d="M708.1,346.7c0,0,0.9-23.2,9.8-21.3S708.1,346.7,708.1,346.7z"/>
<path class="st3" d="M707.7,346.1c0,0,19.4,6.8,15.6,16.2S707.7,346.1,707.7,346.1z"/>
<path class="st3" d="M695.2,349.8c0,0,0.9-23.2,9.8-21.3S695.2,349.8,695.2,349.8z"/>
<path class="st3" d="M694.8,349.2c0,0,19.4,6.8,15.6,16.2S694.8,349.2,694.8,349.2z"/>
<path class="st3" d="M682.4,355.5c0,0-1.7-23.1,7.3-22.6S682.4,355.5,682.4,355.5z"/>
<path class="st3" d="M681.9,355c0,0,20,3.9,17.3,13.8S681.9,355,681.9,355z"/>
<path class="st3" d="M670.6,360.3c0,0-1.7-23.1,7.3-22.6S670.6,360.3,670.6,360.3z"/>
<path class="st3" d="M670.1,359.8c0,0,20,3.9,17.3,13.8S670.1,359.8,670.1,359.8z"/>
<path class="st3" d="M657.5,369.4c0,0-1.7-23.1,7.3-22.6S657.5,369.4,657.5,369.4z"/>
<path class="st3" d="M657,368.9c0,0,20,3.9,17.3,13.8S657,368.9,657,368.9z"/>
<path class="st3" d="M723.2,344.9c0,0,17.7,14.1,11.2,22.2S723.2,344.9,723.2,344.9z"/>
<path class="st3" d="M734.3,343.8c0,0,20.4,7.8,16.2,17.7S734.3,343.8,734.3,343.8z"/>
<path class="st4" d="M800.7,408.8l-9.7-1.1c0.9-7.4,1.2-28.8-7.6-38.4c-3.1-3.3-7.5-5.2-12-5.1c-23.8-0.4-36.5-3.5-42.5-10.3
	c-5.3-6.1-4.1-13.5-2.8-20.6c1.1-6.5,2.3-13.1-1.3-19.3c-7.4-18.8-47.1-13.5-61.8-9.9l-2.4-9c2.5-0.6,61.5-14.7,73.1,15
	c4.9,8.4,3.3,17.5,2.1,24.7c-1.1,6.4-1.6,10.4,0.7,13.1c3.8,4.3,15.6,6.7,35.2,7c7.8,0.1,14.3,2.9,19.2,8.3
	C804.3,377.9,800.9,407.5,800.7,408.8z"/>
<path class="st5" d="M825.2,470.1c0,10.3-8.8,18.7-19.6,18.7h-19.5c-10.8,0-19.6-8.4-19.6-18.7v-47.7c0-10.3,8.8-18.7,19.6-18.7
	h19.6c10.8,0,19.6,8.4,19.6,18.7L825.2,470.1z"/>
<path class="st6" d="M803.2,427.3c0,7.6-3.3,13.7-7.3,13.7s-7.3-6.2-7.3-13.7s3.3-13.7,7.3-13.7S803.2,419.7,803.2,427.3z"/>
<path class="st7" d="M669.9,439.3H175.9c-2.9,0-5.3-2.4-5.3-5.3l0,0V86.1c0-2.9,2.4-5.3,5.3-5.3h493.9c2.9,0,5.3,2.4,5.3,5.3V434
	C675.2,436.9,672.8,439.3,669.9,439.3L669.9,439.3L669.9,439.3z"/>
<rect x="422.9" y="89.6" class="st8" width="243.4" height="340.4"/>
<rect x="179.5" y="89.6" class="st8" width="243.4" height="340.4"/>
<path class="st9" d="M660.4,86.9v339.7c-158.1-12.4-237.5,2.7-237.5,2.7V89.5C422.9,89.5,481.5,56.3,660.4,86.9z"/>
<path class="st10" d="M660.4,86.9v339.7c-178.9-30.5-237.5,2.7-237.5,2.7V89.5C422.9,89.5,481.5,56.3,660.4,86.9z"/>
<path class="st9" d="M185.4,86.9v339.7c158.1-12.4,237.5,2.7,237.5,2.7V89.5C422.9,89.5,364.3,56.3,185.4,86.9z"/>
<g>
	<defs>
		<rect id="SVGID_1_" x="200" y="83.7" width="208.3" height="318.2"/>
	</defs>
	<clipPath id="SVGID_2_">
		<use xlink:href="#SVGID_1_"  style="overflow:visible;"/>
	</clipPath>
	<g class="st11">
		<path class="st12" d="M413.2,326c0,0-53.8-30.5-218.2-2.4"/>
		<path class="st12" d="M413.2,349c0,0-53.8-30.5-218.2-2.4"/>
		<path class="st12" d="M413.2,372.1c0,0-53.8-30.5-218.2-2.5"/>
		<path class="st12" d="M413.2,395.1c0,0-53.8-30.5-218.2-2.4"/>
		<path class="st13" d="M347.5,192c0-26.3-21.9-47.6-49-47.6s-49,21.3-49,47.6c0,10.1,3.3,20,9.4,28l0,0c7,10.3,25.2,18.7,25.2,32.7
			v7.9c0,1.6,1.3,2.9,2.9,2.9c0,0,0,0,0,0h23c1.6,0,2.9-1.3,2.9-2.9c0,0,0,0,0,0v-7.9c0-14,18.2-22.5,25.2-32.7l0,0
			C344.2,212,347.5,202.1,347.5,192z"/>
		<path class="st14" d="M292,261.4c0.3-6.6,1.8-48.4-5.2-61.8c-3.5-6.6-10-9.5-14.2-7c-2.8,1.6-4.1,6-3.5,10
			c1.2,7.9,8.7,17.6,28.9,17.6s27.7-9.7,28.9-17.6c0.6-4-0.7-8.4-3.5-10c-4.2-2.5-10.7,0.4-14.2,7c-7.1,13.4-5.5,55.2-5.3,61.8"/>
		<path class="st15" d="M288,152.2c-17.7,4.4-30.8,19.9-30.8,38.5"/>
		<path class="st16" d="M299,150.9c0,1.6-1.2,2.9-2.7,2.9c-1.6,0-2.9-1.2-2.9-2.7c0-1.6,1.2-2.9,2.7-2.9c0,0,0.1,0,0.1,0
			C297.7,148.1,299,149.3,299,150.9C299,150.9,299,150.9,299,150.9z"/>
		<path class="st16" d="M282.5,254.8h31.2v14.5c0,2.4-0.7,4.7-2,6.7l0,0c-2.5,3.8-6.8,6-11.3,6h-4.6c-4.5,0-8.8-2.2-11.3-6l0,0
			c-1.3-2-2-4.3-2-6.7L282.5,254.8z"/>
		<path class="st17" d="M282.5,265.5h0.3l31.2-4.2c1-0.1,1.8-1.1,1.7-2.1c0,0,0,0,0,0c-0.2-1-1.1-1.8-2.2-1.6l-31.2,4.2
			c-1,0.1-1.8,1.1-1.7,2.1c0,0,0,0,0,0C280.7,264.8,281.5,265.5,282.5,265.5z"/>
		<path class="st17" d="M282.5,272.1h0.3l31.2-4.2c1-0.1,1.8-1.1,1.7-2.1c0,0,0,0,0,0c-0.2-1-1.2-1.7-2.2-1.6l-31.2,4.2
			c-1,0.1-1.8,1.1-1.7,2.1c0,0,0,0,0,0C280.7,271.4,281.5,272.1,282.5,272.1z"/>
		<path class="st17" d="M283.7,278.6h0.3l29.6-4c1-0.1,1.8-1.1,1.7-2.1c0,0,0,0,0,0c-0.2-1.1-1.1-1.8-2.2-1.6l-29.6,4
			c-1,0.1-1.8,1.1-1.7,2.1C281.9,277.9,282.7,278.6,283.7,278.6z"/>
		<path class="st14" d="M319,168.8V93.6c0,0-5-0.2-13.7-0.1"/>
		<path class="st18" d="M299.2,102.6c-20.1,0.5-43.3,2-69.9,5.2"/>
		<path class="st18" d="M299.2,111c-20.1,0.5-43.3,2-69.9,5.2"/>
		<path class="st18" d="M299.2,94.3c-20.1,0.5-43.3,2-69.9,5.2"/>
		<path class="st18" d="M299.2,120.1c-7.9,0.2-16.3,0.6-25.2,1.1"/>
		<path class="st16" d="M303.1,93.5c0,1.2,0.9,2.3,2.2,2.3s2.3-0.9,2.3-2.2s-0.9-2.3-2.2-2.3c0,0,0,0-0.1,0
			C304.1,91.3,303.1,92.2,303.1,93.5z"/>
		<path class="st14" d="M399.1,159.9v48.9c-11.6-2.8-27.9-5.5-49.8-6.8"/>
		<path class="st18" d="M399.3,132.4c-12.1-2.9-29.4-5.7-52.7-7"/>
		<path class="st18" d="M399.3,142.3c-12.1-2.9-29.4-5.7-52.7-7"/>
		<path class="st18" d="M399.3,152.2c-13.2-3-26.6-5.1-40.1-6.1"/>
		<path class="st16" d="M396.8,159.9c0,1.2,0.9,2.3,2.2,2.3c1.2,0,2.3-0.9,2.3-2.2c0-1.2-0.9-2.3-2.2-2.3c0,0,0,0-0.1,0
			C397.9,157.7,396.9,158.7,396.8,159.9z"/>
		<polyline class="st14" points="276.5,271.8 276.5,296.1 255.2,296.1 		"/>
		<path class="st18" d="M250.6,269.8c0,0-25.1,1.3-54.5,5.9"/>
		<path class="st18" d="M250.6,278.1c0,0-25.1,1.3-54.5,5.9"/>
		<path class="st18" d="M250.6,286.5c0,0-25.1,1.3-54.5,5.9"/>
		<path class="st18" d="M250.6,294.8c0,0-12.8,0.7-30.8,2.7"/>
		<path class="st16" d="M252.9,296.1c0,1.2,0.9,2.3,2.2,2.3c1.2,0,2.3-0.9,2.3-2.2s-0.9-2.3-2.2-2.3c0,0,0,0-0.1,0
			C254,293.9,253,294.9,252.9,296.1C252.9,296.1,252.9,296.1,252.9,296.1z"/>
	</g>
</g>
<rect x="140" y="486.9" class="st19" width="176.8" height="30"/>
<rect x="316.8" y="486.9" class="st20" width="176.8" height="30"/>
<path class="st21" d="M141.4,483.4h354.2c0.8,0,1.4,0.6,1.4,1.4v0.8c0,0.8-0.6,1.4-1.4,1.4H141.4c-0.8,0-1.4-0.6-1.4-1.4v-0.8
	C140,484,140.6,483.4,141.4,483.4z"/>
<path class="st21" d="M141.4,513.4h354.2c0.8,0,1.4,0.6,1.4,1.4v0.8c0,0.8-0.6,1.4-1.4,1.4H141.4c-0.8,0-1.4-0.6-1.4-1.4v-0.8
	C140,514,140.6,513.4,141.4,513.4z"/>
<rect x="140" y="483.4" class="st21" width="7.3" height="33.6"/>
<g class="st22">
	<polygon class="st23" points="407.9,495.1 316.8,495.3 209.5,495.1 209.5,495.1 316.8,494.9 407.9,495.1 	"/>
</g>
<g class="st22">
	<polygon class="st23" points="240.4,502 201.9,502.1 156.5,502 156.5,502 201.9,501.8 240.4,502 	"/>
</g>
<g class="st22">
	<polygon class="st23" points="362.1,510 318.4,510 266.9,510 266.9,510 318.4,509.9 362.1,510 	"/>
</g>
<rect x="108.7" y="520.6" class="st20" width="186.9" height="30.8"/>
<rect x="295.6" y="520.6" class="st19" width="186.9" height="30.8"/>
<path class="st21" d="M110.1,516.9h374.5c0.8,0,1.4,0.6,1.4,1.4v0.8c0,0.8-0.6,1.4-1.4,1.4H110.1c-0.8,0-1.4-0.6-1.4-1.4v-0.8
	C108.7,517.6,109.3,516.9,110.1,516.9z"/>
<path class="st21" d="M110.1,547.7h374.5c0.8,0,1.4,0.6,1.4,1.4v0.8c0,0.8-0.6,1.4-1.4,1.4H110.1c-0.8,0-1.4-0.6-1.4-1.4v-0.8
	C108.7,548.4,109.3,547.7,110.1,547.7z"/>
<rect x="108.7" y="516.9" class="st21" width="7.7" height="34.4"/>
<g class="st22">
	<polygon class="st23" points="391.9,528.9 295.6,529.1 182.2,528.9 182.2,528.9 295.6,528.7 391.9,528.9 	"/>
</g>
<g class="st22">
	<polygon class="st23" points="214.8,536 174.1,536.1 126.1,536 126.1,536 174.1,535.8 214.8,536 	"/>
</g>
<g class="st22">
	<polygon class="st23" points="343.4,544.2 297.2,544.3 242.8,544.2 242.8,544.2 297.2,544.1 343.4,544.2 	"/>
</g>
<rect x="137.1" y="424.2" class="st19" width="178.2" height="59.2"/>
<rect x="315.3" y="424.2" class="st19" width="178.2" height="59.2"/>
<path class="st21" d="M139.8,417.2h354.4c1.5,0,2.7,1.2,2.7,2.7v1.5c0,1.5-1.2,2.7-2.7,2.7H139.8c-1.5,0-2.7-1.2-2.7-2.7v-1.5
	C137.1,418.4,138.3,417.2,139.8,417.2z"/>
<path class="st21" d="M139.8,476.4h354.4c1.5,0,2.7,1.2,2.7,2.7v1.5c0,1.5-1.2,2.7-2.7,2.7H139.8c-1.5,0-2.7-1.2-2.7-2.7v-1.5
	C137.1,477.6,138.3,476.4,139.8,476.4z"/>
<rect x="137.1" y="417.2" class="st21" width="7.4" height="66.2"/>
<g class="st22">
	<polygon class="st23" points="407.1,440.2 315.3,440.6 207.2,440.2 207.2,440.2 315.3,439.9 407.1,440.2 	"/>
</g>
<g class="st22">
	<polygon class="st23" points="238.3,453.8 199.4,454.1 153.7,453.8 153.7,453.8 199.4,453.4 238.3,453.8 	"/>
</g>
<g class="st22">
	<polygon class="st23" points="361,469.6 316.9,469.8 265,469.6 265,469.6 316.9,469.4 361,469.6 	"/>
</g>
<path class="st5" d="M184.9,453.8h-20.4c0,0-7.6,4-7.8,12.7s-0.5,16.9-6.4,16.9h19.5c0,0,3.8-5.3,3.3-15.9S184.9,453.8,184.9,453.8z
	"/>
<path class="st24" d="M453.3,239.1c0,0,8.8,9,10.3,13.5c0,0,1.3-8-0.5-13.7s-3.7-15.4-14.9-17.9S453.3,239.1,453.3,239.1z"/>
<path class="st25" d="M513,350.3l9.5-0.6c0,0,10.1,4.3,16.6-5.5c0,0,1.7-4-1.6-4.9s-1.1,2.8-5.8,1.5s-9.7-0.5-12,2l-4.3,4.1
	L513,350.3z"/>
<path class="st26" d="M451.6,276.5c0,0-1.7,5.6-1.4,6.3c0.6,1.5,13.3,1.9,16.4,3.7s5.8,9.3,6.7,10.8s-61.8-4.5-66-10.4
	c0,0,1.8-3.3,8.9-4.2c6.5-0.8,13.1-0.7,14.9-2.4c1-0.9,5.4-16.5,5.4-16.5L451.6,276.5z"/>
<path class="st24" d="M463.2,237L463.2,237c0,0-10.5-13.9-22-17c-9.1-2.4-15.7,7.4-15.7,7.4c-12.1,24.8,7.6,33.5,7.6,33.5l0,0
	l24.2,4.8l2.9-4.7C470.1,247.5,466.2,240.5,463.2,237z"/>
<path class="st24" d="M440,255.4l-6.9,5.5c0,0-19.7-8.8-7.6-33.5c0,0-2.7,23.4,9.1,25.2C437.8,253.1,439.4,254.1,440,255.4z"/>
<path class="st25" d="M451.4,276.4c0,0-21.5-5.5-17.9-19.2s3.2-23.6,17-20.6s15.2,8.9,15.1,13.7S457.1,277.4,451.4,276.4z"/>
<path class="st24" d="M459.7,239.8c0,0,4.5,4.6,4.4,7.5s-2.9,16.2-0.9,22.5c1.2,3.8,1.6,7.9,1.4,11.9c0,0,4.4-8.7,3.6-12.8
	c-0.8-4.9-0.4-9.9,0.9-14.7C470.3,250.5,467.2,238.4,459.7,239.8z"/>
<path class="st26" d="M427.8,367.8c0,0-7,30-1.9,42s12.5,9.6,18,10.1s63.4,0,63.4,0s-7.3,26.2-1.1,83.4l5.5,1.1
	c0,0,23.3-96.2,17.1-105.3S427.8,367.8,427.8,367.8z"/>
<path class="st25" d="M536.8,506.7h-5.1c-6.2-10.5-11.3-20.1-15.5-28.8h16.6C535.2,494.3,536.8,506.7,536.8,506.7z"/>
<path class="st25" d="M484.9,350.9c0,0-3.1-27.4-6.8-39.1l0,0c0,0-4.5-26.4-20.4-26.8c-6.7-0.2,2.3,29,2.3,29s0.6,18.5,2.5,24
	c1.3,3.7,5.8,34.2,14,31.9c23.3-6.3,45.8-20.3,45.8-20.3s-1.1-7.4-2.8-6.8C499.3,350.1,484.9,350.9,484.9,350.9z"/>
<polygon class="st27" points="548.5,319.9 546.1,329.5 524,353.4 525,332.5 539.2,330.3 "/>
<polygon class="st28" points="524.5,333.8 546.1,329.5 524,353.4 495.2,366.3 "/>
<polygon class="st29" points="524.8,331.7 494.6,364.4 496,365.5 525.3,333.6 "/>
<polygon class="st29" points="547.7,320.1 538.8,330.2 545.3,329 "/>
<polygon class="st30" points="525.3,333.6 524.8,331.7 545.6,328.1 546,329.4 "/>
<polygon class="st30" points="548.3,320.3 546,329.4 545.6,328.1 547.7,320.1 "/>
<path class="st31" d="M542.6,328.6c0,0,1,0,1.3,0.7s1.2,4.3,1.2,4.3s0.2,0.7,0.5,0.7l1-0.3c-0.2-0.2-0.4-0.5-0.6-0.8
	c-0.1-0.4-1.2-4.2-1.2-4.2s-0.4-0.7-0.9-0.6L542.6,328.6z"/>
<path class="st32" d="M470.8,378.3c0,0,50.2,12.8,59.6,21.8c0,0-5.2,70.5-13.2,84.2c0,0-12.1-4.5-15.1-4.1c0,0-1.3-52.9,10.7-67.5
	c0,0-70.1-2.1-71.1-10.2S470.8,378.3,470.8,378.3z"/>
<path class="st33" d="M529,510.2l-1.7-9.8c22.7-0.4,29.5,11.4,30.5,13.5L529,510.2z"/>
<path class="st34" d="M408.4,395.8c0,0-2.4,24.3,15.7,24.2s70.7,0,70.7,0s3.5,0.8,3.8,3.3c2.3,19.2,6.1,34.6,11.6,44.4
	c5.4,9.6,10.5,19,10.5,19s6.8-4.9,12.7-5.3c0,0-11.5-81.7-13.6-83.8S469,382,462.3,383.3S408.4,395.8,408.4,395.8z"/>
<path class="st33" d="M500.9,503.6l2.9-9.5c20.3,10.2,21.2,23.9,21.2,26.3L500.9,503.6z"/>
<path class="st33" d="M491.3,366.5c0,0-10.5,7.7-15,6.8s-10-14.5-10.6-17.3v-0.1c-0.2,1-0.3,2.1-0.3,3.1c-0.1,2.4,7.2,15.7,7.9,18.6
	s-6.1,5.9-6.7,7.5c-0.3,0.8-5,7.4-11.9,14.2c-7.9,7.9-18.5,16-28.5,15.6c-8-0.3-12.3-3.2-14.8-6.4c-1.9-2.6-3-5.8-2.9-9.1
	c0,0-1.4-10,4.5-24.1l0.4-0.9c3.6-8.4,3.3-23.7,2.3-35.1l0,0c-0.7-8.4-1.8-14.7-1.8-14.7l12.5-42.9c0,0,12.4,11.2,20.3,13.1
	c0,0,6.6-8.5,7-11c0,0,13.2,1.5,13.8,1.9s11.2,17.5,13.5,32s4.3,30.8,5,30.9s6.3,0.3,6.8,1.1c-1,3-1.6,6.2-1.9,9.3
	C490.7,362.2,490.7,365.1,491.3,366.5z"/>
<path class="st25" d="M407.3,287c0,0-13.4,42-9.1,70.4c0,0,12.5,7.5,41,18.1l2-7.1c0,0-25.8-15.6-28.7-22.6c0,0,17.5-54.2,13.4-58.9
	S407.3,287,407.3,287z"/>
<path class="st33" d="M426.4,281.8c0,0-15.6,0.6-18.1,3s-16.6,44.9-14.8,66.8s16.2,16.2,16.2,16.2s0.8-15.8,5.2-18.6
	c0,0-2.2-3.2-1.8-4.4s14.5-29.6,14.6-44S426.4,281.8,426.4,281.8z"/>
<path class="st35" d="M491.3,366.5c0,0-10.5,7.7-15,6.8s-10-14.5-10.6-17.3v-0.1c0,0,1.9-21.5,1.9-25.8s2.2-4.6,3.3,0
	s9.8,29,11.2,30s9-1.1,9-1.1l0,0C490.7,362.2,490.7,365.1,491.3,366.5z"/>
<path class="st25" d="M431.3,367.6l9.5,0.6c5.5-3.1,12.4-1.9,16.5,2.9c0,0,2.9,3.6-0.4,4.5s-2.2,0.1-6.9,1.4s-9.7,0.5-12-2l-4.3-4.1
	L431.3,367.6z"/>
<path class="st24" d="M455.1,239.6c0,0-0.4,10.2-8.3,11.9s-12.1,6.2-11.5,9.6s2.8,22.2-3.8,25s-16.1-4.5-18.7-0.8s-1,16.3-7.1,15.9
	s-10.2-10.7-2.5-20.1s14.8-13,14.8-20s-0.5-25.8,4.8-32.3c4-4.8,9.2-9.6,21.9-8.3s15,13,15,13L455.1,239.6z"/>
<path class="st36" d="M161.6,255.1c-2.4,7.7-0.6,17.9-4.4,24.6c-1.5,2.7-4.1,4.8-4.8,7.8c-0.6,2.6,0.3,5.3,2.3,7
	c2,1.6,4.8,1.9,7.1,0.7c0.5-0.3,0.9-0.5,1.5-0.8c1.9-0.6,3.5,1.2,5.1,2.3c1.9,1.5,4.5,1.9,6.8,1.3c2.9-1,4.7-4,5.6-7.1
	c2.7-8.4,0.8-17.7-1.7-26.2c-1.2-4.3-3.1-9-7.1-10.5"/>
<path class="st37" d="M138,283.4l-0.5-3.5c-5.8-1.5-21.5,1.2-28.4,8.6C117.6,282.9,128.1,281,138,283.4z"/>
<path class="st38" d="M108.3,287.5l0.2,0.2l0.6,0.9c-1.3-7-13.2-13.3-13.2-13.3l-2,2.7C99.7,279.4,104.8,282.8,108.3,287.5z"/>
<path class="st38" d="M137.3,286.4l0.2,0.1l1.7-2.7l-1.1-0.3c-9.9-2.4-20.4-0.6-28.8,5.2l0,0C118,284.4,128,283.6,137.3,286.4z"/>
<polygon class="st38" points="137.5,286.5 143,326.4 143.1,326.4 "/>
<polygon class="st37" points="137.5,286.5 143.1,326.4 144.9,324 139.2,283.8 "/>
<path class="st39" d="M137.5,286.5l-0.2-0.1c-9.3-2.8-19.3-2-28.1,2.2l0,0l5.1,36.8l2.4-0.5c7.3-1.4,14.8-1,22,1.1l4.5,1.3l-0.1-0.9
	L137.5,286.5z"/>
<path class="st40" d="M108.5,287.7l-0.2-0.2c-0.3,9.9-3,19.6-7.9,28.2l0.4,2.1l0,0c4.3,0.9,8.3,2.9,11.5,5.9l1.9,1.7l-5.1-36.7
	L108.5,287.7z"/>
<path class="st39" d="M108.3,287.5c-3.6-4.7-8.6-8.1-14.4-9.5l-0.9-0.2l0,0l7.3,37.9C105.4,307.1,108.1,297.4,108.3,287.5z"/>
<path class="st41" d="M152.3,374.1l-0.3,1.5c1.6-1.3,2.9-3,3.7-5l15.4-36.3l0.8-23.2c-3.8,4.9-6.5,10.6-8,16.6L152.3,374.1z"/>
<path class="st41" d="M171,303.1L171,303.1c-5.1,1.4-9.1,5.4-10.5,10.5l-15.6,50.2l-17.1-23.9l-8.7-5l-1-8.6l5.6-15.4
	c0.5-1.4,0.2-3.1-0.7-4.3l0,0L118,317l2.7-9.9c0.3-1.2,0.1-2.6-0.7-3.5l-3.8-4.7l-4.2,13.5l1.6-10.6c0.3-1.9,0-3.8-0.8-5.5
	l-4.6,17.7c-1.9,7.2-0.7,14.8,3.3,21.1l24.3,37.6c3.1,5.2,9.8,6.9,15,3.8c0.4-0.3,0.8-0.5,1.2-0.8l0.3-1.5l11.5-46.3
	c1.5-6,4.2-11.7,8-16.6l0.2-5.5L171,303.1z"/>
<polygon class="st41" points="127.8,339.9 118,326.3 119,334.9 "/>
<path class="st42" d="M199.3,287.5c-1.1,4.6-4.6,8.2-9.2,9.3l-5.5,1.2c-0.4,1.1-1.3,2-2.4,2.4l-1.5,0.4l8.1,14.3l12.1-19.1
	L199.3,287.5z"/>
<path class="st42" d="M199.3,287.5l-2.2-11.1l-13.9,12.2l1.6,7.2c0.2,0.7,0.1,1.4-0.1,2.1l5.5-1.2
	C194.6,295.6,198.2,292.1,199.3,287.5z"/>
<path class="st43" d="M188.9,315.1l-8.6-15.1l-9.3,3.1v7.2c0,6.4-1.5,12.7-4.5,18.4l-1.8,3.3c-3.1,5.8-1.4,13.4,4,16.8l0,0
	c5.9,3.9,10.5,9.5,13.1,16l0.4,1h35.1l0.8-9c0.9-11.1,3.2-22.1,6.8-32.6l3.1-9.2l-2-18.7l-24.2-1.7l-0.9,1.3L188.9,315.1z"/>
<path class="st42" d="M101.3,468.8L101.3,468.8c-10,1.3-19.6,5.3-27.5,11.6l-5.2,4l17.7,1.1c5.4,0.3,10.8,1.5,15.9,3.3l3.8,1.4
	c2,0.8,4.3,0.5,6.1-0.8c2.3-1.7,3.5-4.5,3.1-7.3l-0.8-6.9c0-0.5-0.1-0.9-0.1-1.4l-7.1-27.5L101.3,468.8z"/>
<path class="st42" d="M123.1,449.1l3.2-8.4l-14.7-10.8l-2.8,10.6l-1.6,5.9l7.1,27.5c0-1.3,0.3-2.5,0.7-3.7L123.1,449.1z"/>
<path class="st42" d="M130.9,515.5c-0.7-1.6-1-3.3-0.9-5l1.5-22.7c-2.3-0.3-4.5-0.9-6.7-1.7c-3-1.1-6.3-2.1-9.4-1.4l0.9,24.3
	c0.1,3.1-1.2,6-3.6,7.9l-21.1,15.8h35.7c2.8-0.1,5.2-1.7,6.3-4.3c0.9-2.1,0.9-4.5,0-6.6L130.9,515.5z"/>
<path class="st42" d="M124.9,486c2.1,0.8,4.4,1.4,6.7,1.7l0.6-9.1l-17-5.1l0.4,11C118.5,483.9,121.8,484.9,124.9,486z"/>
<path class="st44" d="M140.2,438.9c-0.6-3.5-1.4-6.9-2.3-10.3l-1.2-4.3h-8.5C130.9,429.9,135.4,434.7,140.2,438.9z"/>
<path class="st45" d="M217.3,366h-35.1l-4.3,7.5h35.1l-6.6,7.2l6.6,6.2l-35.1-13.4l-30.5-11.7c-10.2-3.9-21.2,2.7-23.7,14.2l-4.6,21
	c-6.4,6.4-9.7,15.3-8.9,24.3l4.3,58.7l1-0.3c4.4-1.1,8.9-0.6,13,1.3c2.6,1.2,5.4,1.9,8.3,1.9h4.4l0.8-16.1
	c0.5-9.3-0.1-18.7-1.8-27.9c-4.8-4.2-9.3-9-12-14.6h42.6l-36.5-34.7l0,0l61.3,34.5c7.9,0,17.3,1.2,24.5-2.6c8.7-4.6,14-15.4,13.9-26
	S224.8,372.7,217.3,366z M134.3,389.6c-1.4,0.1-2.8,0.4-4.1,0.8h-0.1c-0.5,0.1-1,0.3-1.5,0.5h-0.1l-0.7,0.3
	c-0.9-2.1-1.4-4.4-1.5-6.7L134.3,389.6L134.3,389.6z"/>
<polygon class="st44" points="134.3,389.7 170.7,424.3 170.8,424.4 195.6,424.2 134.3,389.7 "/>
<path class="st44" d="M127.8,391.2l0.7-0.3h0.1c0.5-0.2,1-0.3,1.5-0.5h0.1c1.3-0.4,2.7-0.6,4.1-0.8l0,0l-8-5.1
	C126.4,386.9,126.9,389.1,127.8,391.2z"/>
<polygon class="st44" points="206.4,380.6 212.9,373.4 177.9,373.4 212.9,386.8 "/>
<polygon class="st46" points="203.7,366 196.8,350.1 199.3,366 "/>
<polygon class="st46" points="193,366 190.8,356.6 189.6,366 "/>
<polygon class="st46" points="209.2,366 211.4,353.6 212.9,366 "/>
<polygon class="st46" points="213.6,366 214.3,359.8 214.7,366 "/>
<polygon class="st41" points="232.1,345.7 233.9,350.1 239.3,347.1 "/>
<polygon class="st41" points="197.9,381.1 206.9,384.5 233.1,366.9 204.9,381.1 "/>
<path class="st41" d="M246,343.3l-16.5-42.8c-1.6-4.2-6.2-6-9.9-4l0,0c-3.6,2.1-5,6.6-3.4,10.4l15.9,38.8l7.2,1.5l-5.4,3l-36,27.8
	h-8.3l8.2,3.2h7L233,367l7.5-5.1C246.3,358,248.6,350.1,246,343.3z"/>
<path class="st47" d="M173.2,260.8c0.8,1.1,1.6,2.3,2.4,3.4h0.3c0.9-0.1,1.9-0.2,2.8-0.2c-0.6-1.3-1.2-2.6-1.6-4
	C175.8,260.3,174.5,260.6,173.2,260.8z"/>
<path class="st41" d="M161.3,257.8l3,16.2c1.1-0.1,2.1-0.2,3.2-0.4c5-0.9,9.8-2.6,14.7-3.9c4.5-1.2,9.2-1.9,13.8-2.1l-3.1-16.8
	L161.3,257.8z"/>
<path class="st41" d="M167.5,273.5c-1.1,0.2-2.1,0.3-3.2,0.4l1.2,6.7c1.6,8.8,9.5,14.6,17.5,12.8l0,0c9.4-2.1,15.5-12.2,13.6-22.5
	l-0.6-3.4c-4.7,0.3-9.3,1-13.8,2.1C177.3,270.9,172.5,272.6,167.5,273.5z"/>
<path class="st36" d="M159.2,252.2c0.2,2.2,1.2,4.9,3.1,5.9c0.8,0.4,1.7,0.6,2.6,0.6c2.9,0,5.3-1.8,8.1-1.5c1.4,0.2,2.7,0.9,3.6,2
	c1,1.3,0.9,3,2.1,4.2c1.9,1.9,4.9,1.7,7.1,3c0.4,0.2,0.7,0.4,1,0.8c0.2,0.4,0.3,0.8,0.3,1.2c0,1.2,0.1,2.4,0.1,3.6
	c1.1-0.5,1.3-2.1,2.2-2.9c1-0.7,2.4-0.6,3.3,0.2c0.8,0.8,1.4,1.9,1.6,3.1c0.1,1.5-0.1,2.9-0.6,4.3c-0.3,0.8-1.7,2.3-2.2,2.9
	c0,0-0.9,10,0.7,16.9c0.3,1.4,1.7,2.2,3.1,1.9c0,0,0.1,0,0.1,0l0,0c2.2-0.7,4.6-1.2,6.8-0.3c1.3,0.5,2.4,1.5,3.8,1.7
	c1.3,0.1,2.6-0.2,3.7-0.9c0.4-0.2,0.8-0.4,1.1-0.6c2-1.2,3.8-2.4,4.6-4.6c1.2-3.2,1.8-8.1,0.1-11.3c-1.1-2.1-3.2-3.5-4.7-5.4
	c-2-2.6-2.6-6.1-2.8-9.3s0-6.6-0.7-9.9c-1.2-5.5-2.8-10.8-7-14.3c-6.8-5.7-22.5-8.3-37.6,1.4C160.2,246.4,158.9,249.3,159.2,252.2z"
	/>
<path class="st48" d="M722.3,343.1c0,0,30.7,86.5,30.8,89.5s-42.6,74.8-42.6,74.8l-1-0.3l21.6-72.5l-18.2-43.2L722.3,343.1z"/>
<path class="st48" d="M682,354c13.1,60.2,51.7,162.7,51.7,162.7h1.2L719.4,386l7.7-7l-4.4-35.4C722.7,343.6,679.2,341.4,682,354z"/>
<path class="st49" d="M708.9,257.6c20.2,16,27.8,46.3,27.8,46.3l39-1.7l1.9,8.9c0,0-32.5,18.3-49.7,13.3S708.9,257.6,708.9,257.6z"
	/>
<path class="st50" d="M777,311.3c8.3,2.2,14,0.2,16.3-2.5s6.2-9.7,2.3-10.1s-20.4,6.1-20.4,6.1L777,311.3z"/>
<path class="st51" d="M684,250.9c-17,20.7-11.6,48.8-7.6,62.1s-2.5,40.3,8.2,52.2c0,0,15.3-16.2,26.1-14.8s13.4,6.6,16.2,4.3
	s-0.8-34.7,1-43.6s-0.9-32.9-12.8-46.9S684,250.9,684,250.9z"/>
<path class="st50" d="M706.4,255.3l-22.5-4.3c17.7,8.1,34.5,23,34.5,23S712.7,258.9,706.4,255.3z"/>
<polygon class="st50" points="686.1,250.9 700.2,212.1 712.4,230.6 707.2,258.2 "/>
<polygon class="st52" points="805.6,237.6 770.1,301.6 712.2,306.6 712.4,307.6 791.4,307.6 831.7,243.9 "/>
<polygon class="st53" points="770.1,301.6 712.2,306.6 712.4,307.6 791.4,307.6 773.3,305.1 "/>
<polygon class="st54" points="813.2,239.4 773.3,305.1 791.4,307.6 831.7,243.9 "/>
<polygon class="st55" points="813.2,239.4 791.4,307.6 831.7,243.9 "/>
<path class="st49" d="M698.2,304.3c-1.8-26-10.1-54.5-14.6-53.1c-5.3,1.7-14.2,12.6-15.8,28.2c-1.4,14.2,8.7,46,16.1,51.8
	s49.8-23.2,61.1-27.9l2-11.8C731.5,291,711.4,297.3,698.2,304.3z"/>
<path class="st56" d="M749.3,519.8h-15.8c0,0-2.2-3.8,1-5.3C738.8,512.5,749.3,519.8,749.3,519.8z"/>
<path class="st56" d="M719.6,519.8h-8.9l-3.9-11.8c0,0,3.7-6.5,5.6-3.1c1.2,2.1,0.5,8.5,0.5,11.1C715,517.5,717.3,518.8,719.6,519.8
	z"/>
<path class="st50" d="M762.3,293.3c0.3,3.6-0.5,5.8-1.4,6.3s-3.6-0.9-4.1-2S762,290.1,762.3,293.3z"/>
<path class="st56" d="M761.4,291.2c-0.3,6.7-0.9,7.3-2,7.9s-4.3-0.2-4.7-1.2s0.3-3.7,1.1-3.5c0.6,0.1,1.3,0.2,1.9,0.3L761.4,291.2z"
	/>
<path class="st56" d="M758.6,289.3c-1.5-2.7-12.7-2.5-18.6,2.9l3.7,9.7c5.2-2.2,9.6-5.9,12.9-5.6S760,292,758.6,289.3z"/>
<path class="st56" d="M757.3,292.6c-0.3,6.7-0.9,7.3-2,7.9s-4.3-0.2-4.7-1.2s0.2-3.7,1.1-3.5c0.6,0.1,1.3,0.2,1.9,0.3L757.3,292.6z"
	/>
<path class="st56" d="M756.3,287.9c3.8,0.8,6.5,2.5,7.7,4.2c1.3,2.1,2.3,4.5,2.9,6.9c0,1-2.1,2.2-2.6,0.9s-1.9-5.1-2.3-5.3
	s-4.2-2.1-4.4-2.1C757,291.1,756.6,289.5,756.3,287.9z"/>
<path class="st56" d="M696.2,209.1c-7.1,19.7-5.6,27.5-5.4,28.8s15.5,18.7,20.5,19c0,0,15.6-20.7,17.7-36.9s-2.9-19.6-8.5-20
	S699,201.4,696.2,209.1z"/>
<path class="st50" d="M795.3,305.2c3.2-3.2,5.9-9.9,5.1-12.2s-2.9-1.4-3.5-0.5s-1.3,8.3-1.7,10C794.9,303.4,794.9,304.3,795.3,305.2
	z"/>
<path class="st50" d="M792.9,308.4c2.7-2.4,4.2-7.4,3-9.1c-0.6-1.1-2-1.4-3-0.8c-0.2,0.1-0.4,0.3-0.6,0.5c-0.5,0.7,0.1,6.2,0,7.5
	C792.3,307.1,792.5,307.8,792.9,308.4z"/>
<path class="st57" d="M690.6,232.5L690.6,232.5c0,0,1.1,0.3,5.3-7.8c0.8-1.6,1.5-0.5,1.8-1.2l6.5-2.4c0,0-6.3-10.8,2.2-13.7
	c8.6-2.9,21.6,1.2,21.6,1.2c-4.3-14.8-14.9-17.5-14.9-17.5c-7.8-0.5-21.6,1.2-26.3,11.3C683.5,209.7,685.7,221.7,690.6,232.5z"/>
<path class="st56" d="M699.7,218.5c-0.2-2.3-4.3-4.8-6.8-0.3s3,10.4,4.8,9.5S700,222.3,699.7,218.5z"/>
<path class="st36" d="M685.3,218.7c0,0,21-14.1,45.3-8.6c0,0-1-30.4-28.7-25.6C675.7,189,684.4,215.2,685.3,218.7z"/>
<path class="st58" d="M698.8,212.3c0,0,35.7,3.1,49,0.5s-17.6-5.9-17.6-5.9S719.2,203.3,698.8,212.3z"/>
</svg>
