<svg id="Layer_1" data-name="Layer 1" xmlns="http://www.w3.org/2000/svg" viewBox="0 0 1801.34 332.76"><defs><style>.cls-1{fill:#0d1f8c;}.cls-2{fill:#262e6c;}.cls-3{fill:#fced1e;stroke:#231f20;stroke-miterlimit:10;}.cls-4{fill:#fbe200;}.cls-5{fill:#ed2724;}.cls-6{fill:#ffbc00;}.cls-7{fill:#041b8c;}.cls-8{fill:#d61405;}</style></defs><path class="cls-1" d="M308.72,547C224.57,517,190.51,452.64,184,368.86c-6.38,55.78,16.38,101.77,50.6,143.85C188.27,527.58,112,503.17,77.39,439.45,41.1,372.54,61,285.61,123.66,246.78c-2.72,2.47-5.48,4.89-8.14,7.42-23.77,22.59-33.15,50-26.54,82.24,3.67,17.88,12.5,32.76,32.06,36.33,18.85,3.43,32-7.2,42.8-21.13,3.92-5.06,6.94-10.83,10.34-16.22C249.9,365.29,313.28,464.94,308.72,547Z" transform="translate(-59.33 -214.21)"/><ellipse class="cls-2" cx="89.95" cy="56.67" rx="9.77" ry="8.97"/><circle class="cls-3" cx="88.13" cy="57.26" r="3.74"/><path class="cls-4" d="M359.46,362.83a148.35,148.35,0,0,1-55.08,115.5A168.83,168.83,0,0,0,185.87,270.5c-3.36-16.65-12.4-29.54-25.82-34.08-8.79-3-18.26-1.95-27.33,2.25q-.45-.87-.93-1.71A148.64,148.64,0,0,1,359.46,362.83Z" transform="translate(-59.33 -214.21)"/><path class="cls-5" d="M309.87,436.28a168.51,168.51,0,0,1-6.09,45c-.29.24-.57.47-.87.7A257.69,257.69,0,0,0,175.72,332.78a98.38,98.38,0,0,0,5.88-13.88c5.4-16,6.4-31.92,3.67-45.41A168.66,168.66,0,0,1,309.87,436.28Z" transform="translate(-59.33 -214.21)"/><path class="cls-6" d="M515.78,511q-31.53,0-54.42-11.07a106.59,106.59,0,0,1-37.93-30.06,126.87,126.87,0,0,1-22.17-43,171.9,171.9,0,0,1-7.15-49.43,176.83,176.83,0,0,1,8.06-53.31,147.11,147.11,0,0,1,23.64-45.93,111.89,111.89,0,0,1,39-32.09q23.45-11.8,54.23-11.81a146.85,146.85,0,0,1,57.17,12.54A63.72,63.72,0,0,1,599,263.5l-19.05,21.4a56,56,0,0,0-17.59-13.46,109.64,109.64,0,0,0-22.17-8.3,88.15,88.15,0,0,0-21.81-3q-21.25,0-37.38,9.78a85.55,85.55,0,0,0-27.12,26.38,129.07,129.07,0,0,0-16.67,37.26,157.76,157.76,0,0,0-5.68,42q0,33.21,10.63,57.37t30.05,37.26q19.41,13.1,45.81,13.09A139.86,139.86,0,0,0,551.32,479a176.54,176.54,0,0,0,37-14l11.36,21a99,99,0,0,1-18.51,10.51,170.49,170.49,0,0,1-22,7.93,173.11,173.11,0,0,1-22.72,5A141.07,141.07,0,0,1,515.78,511Z" transform="translate(-59.33 -214.21)"/><path class="cls-6" d="M693.14,511.41q-26.75,0-44.89-13.46a81.78,81.78,0,0,1-27.12-35.24,123,123,0,0,1-3.48-82.45,100.32,100.32,0,0,1,16.13-31.35A78,78,0,0,1,660,327q15.57-8.11,35.36-8.12,27.12,0,45.26,13.28a80.59,80.59,0,0,1,27.12,35.05,125,125,0,0,1,3.48,83.19,100.29,100.29,0,0,1-15.94,31.17,77.15,77.15,0,0,1-26,21.76Q713.66,511.41,693.14,511.41Zm.37-23.24q14.29,0,24-6.83a51.78,51.78,0,0,0,15.76-17.89,83.84,83.84,0,0,0,8.61-23.79,124.17,124.17,0,0,0,2.57-24.53,136,136,0,0,0-2.38-24.91,88.66,88.66,0,0,0-7.88-23.61A47.48,47.48,0,0,0,719,348.91q-9.72-6.82-24-6.83t-24,6.83A50.09,50.09,0,0,0,655.4,366.8,87.44,87.44,0,0,0,647,390.59a124.27,124.27,0,0,0-2.57,24.54A122.52,122.52,0,0,0,647,439.29a91.16,91.16,0,0,0,8.24,23.79,50.93,50.93,0,0,0,15.21,18.08Q679.95,488.17,693.51,488.17Z" transform="translate(-59.33 -214.21)"/><path class="cls-6" d="M854,225.51V506.62H823.6V246.9l-4.77-21.39Z" transform="translate(-59.33 -214.21)"/><path class="cls-6" d="M981.91,511.41q-26.76,0-44.89-13.46a81.63,81.63,0,0,1-27.12-35.24,122.83,122.83,0,0,1-3.48-82.45,100.08,100.08,0,0,1,16.12-31.35,78,78,0,0,1,26.2-22q15.57-8.11,35.37-8.12,27.1,0,45.25,13.28a80.51,80.51,0,0,1,27.12,35.05,121.76,121.76,0,0,1,9,46.85,120.54,120.54,0,0,1-5.5,36.34A100.08,100.08,0,0,1,1044,481.53a77.15,77.15,0,0,1-26,21.76Q1002.43,511.41,981.91,511.41Zm.36-23.24q14.29,0,24-6.83A51.75,51.75,0,0,0,1022,463.45a84.17,84.17,0,0,0,8.62-23.79,124.89,124.89,0,0,0,2.56-24.53,136,136,0,0,0-2.38-24.91,88,88,0,0,0-7.88-23.61,47.39,47.39,0,0,0-15.21-17.7q-9.71-6.82-24-6.83t-24,6.83a50.11,50.11,0,0,0-15.58,17.89,87.44,87.44,0,0,0-8.43,23.79,124.24,124.24,0,0,0-2.56,24.54,122.47,122.47,0,0,0,2.56,24.16A91.17,91.17,0,0,0,944,463.08a50.72,50.72,0,0,0,15.21,18.08Q968.71,488.17,982.27,488.17Z" transform="translate(-59.33 -214.21)"/><path class="cls-7" d="M1130,320.69a95.26,95.26,0,0,1,4.39,12.54,86.66,86.66,0,0,1,2.57,12.91,124.73,124.73,0,0,1,15.21-12.91,88.21,88.21,0,0,1,18.5-10.33,51.07,51.07,0,0,1,19.42-4.06q17.6,0,30,7.19t20.16,23.43a161.42,161.42,0,0,1,16.49-14.39,98.19,98.19,0,0,1,19.42-11.62,50.55,50.55,0,0,1,20.89-4.61q20.14,0,32.43,8.49a47.8,47.8,0,0,1,17.78,23.05q5.49,14.58,5.49,33.76V506.62h-30.41V394.1a153.2,153.2,0,0,0-.92-16.79,57.31,57.31,0,0,0-3.85-15.49,25.25,25.25,0,0,0-9-11.44q-6-4.23-16.67-4.24-12.83,0-25.28,8.3a133.46,133.46,0,0,0-20.89,16.79V506.62h-30.42V394.1q0-8.49-.73-17a51.33,51.33,0,0,0-3.67-15.5,25.05,25.05,0,0,0-9.16-11.25q-6.24-4.23-16.86-4.24a39.37,39.37,0,0,0-16.49,3.87,90,90,0,0,0-16.12,9.6q-7.69,5.72-13.56,10.88V506.62h-30.42V373.44a115.31,115.31,0,0,0-1.28-16.6,119.43,119.43,0,0,0-3.85-17.34,66.14,66.14,0,0,0-6.59-15.13Z" transform="translate(-59.33 -214.21)"/><path class="cls-7" d="M1494.58,319.58q19.05,0,33.35,8.11a69.9,69.9,0,0,1,23.64,21.95,106.33,106.33,0,0,1,14.1,30.44,122.31,122.31,0,0,1,4.77,33.94,131,131,0,0,1-5,36.15,100.3,100.3,0,0,1-14.84,31.17,72.56,72.56,0,0,1-24.92,22q-15,8.11-35.55,8.12a75.79,75.79,0,0,1-29.5-5.9,62.27,62.27,0,0,1-24-17.71l-6.6,19.18h-18.32q.36-6.27.74-12.72t.36-12.73V246.9l-5.13-21.39h35.55V327.33c0,2.21-.07,4.37-.19,6.45s-.3,4.24-.55,6.46a81.27,81.27,0,0,1,24-15.68Q1478.82,319.58,1494.58,319.58Zm-7.69,26.19a52.72,52.72,0,0,0-23.64,5.72,70.48,70.48,0,0,0-20,14.57V433.2a84.39,84.39,0,0,0,4.39,28,40.74,40.74,0,0,0,14.48,19.92q10.08,7.38,26.93,7.38,13.93,0,23.28-7.2a51.35,51.35,0,0,0,14.84-18.44,99,99,0,0,0,8.06-24,121.54,121.54,0,0,0,2.56-23.79,110.33,110.33,0,0,0-2.74-24.35,76.22,76.22,0,0,0-8.8-22.32A49.44,49.44,0,0,0,1510.52,352Q1500.82,345.77,1486.89,345.77Z" transform="translate(-59.33 -214.21)"/><path class="cls-8" d="M1655.09,261.66a22,22,0,0,1-6.41,15.86,21.26,21.26,0,0,1-15.94,6.64,20.83,20.83,0,0,1-15.58-6.64,22.83,22.83,0,0,1,0-31.72,20.83,20.83,0,0,1,15.58-6.64,21.44,21.44,0,0,1,15.76,6.64A21.74,21.74,0,0,1,1655.09,261.66Zm-6.59,61.61V506.62h-30.42V345l-4.4-21.76Z" transform="translate(-59.33 -214.21)"/><path class="cls-8" d="M1772,318.84q29,0,43.61,15.86t14.66,44.64V471.2q0,7.76,2.93,10.51a9.76,9.76,0,0,0,7,2.77,28.73,28.73,0,0,0,7-.92,41.49,41.49,0,0,0,7-2.4l6.59,19.92a76.34,76.34,0,0,1-14.84,6.09,62.69,62.69,0,0,1-18.51,2.77,29.52,29.52,0,0,1-17.22-5.35q-7.69-5.35-9.53-19.74a87.26,87.26,0,0,1-24.92,18.63,65.91,65.91,0,0,1-30.05,7.19q-21.61,0-35.91-12.91t-14.29-35.41q0-21,10.08-33.57a61.39,61.39,0,0,1,26.2-18.82,141.16,141.16,0,0,1,34.26-8.48,280.08,280.08,0,0,1,33.9-2.22V379.71a63,63,0,0,0-2.57-18.63,25.65,25.65,0,0,0-9.16-13.28q-6.58-5-18.69-5a66.83,66.83,0,0,0-26.75,5.53A106,106,0,0,0,1717,364.59l-15-21.77a103.09,103.09,0,0,1,33-18.08A117.82,117.82,0,0,1,1772,318.84Zm27.85,104.4q-9.9,0-22.35.92a114.2,114.2,0,0,0-24.19,4.43,43.6,43.6,0,0,0-19.24,11.25q-7.51,7.76-7.51,21.4,0,12.18,8.24,17.89t20.71,5.72a37.53,37.53,0,0,0,23.08-7.38,51.89,51.89,0,0,0,15.58-18.81,52.57,52.57,0,0,0,5.68-23.61Z" transform="translate(-59.33 -214.21)"/></svg>